<?xml version="1.0" encoding="UTF-8" standalone="no"?>
<svg
   xmlns:dc="http://purl.org/dc/elements/1.1/"
   xmlns:cc="http://creativecommons.org/ns#"
   xmlns:rdf="http://www.w3.org/1999/02/22-rdf-syntax-ns#"
   xmlns:svg="http://www.w3.org/2000/svg"
   xmlns="http://www.w3.org/2000/svg"
   id="svg8"
   version="1.1"
   viewBox="0 0 96.762058 94.494049"
   height="357.14285"
   width="365.71487">
  <defs
     id="defs2" />
  <metadata
     id="metadata5">
    <rdf:RDF>
      <cc:Work
         rdf:about="">
        <dc:format>image/svg+xml</dc:format>
        <dc:type
           rdf:resource="http://purl.org/dc/dcmitype/StillImage" />
        <dc:title></dc:title>
      </cc:Work>
    </rdf:RDF>
  </metadata>
  <g
     transform="translate(321.91565,30.783489)"
     id="layer1">
    <rect
       ry="13.607142"
       y="-30.783489"
       x="-321.91559"
       height="94.494049"
       width="96.761909"
       id="rect815"
       style="opacity:1;fill:#ff0000;fill-opacity:1;stroke-width:0.017;stroke-miterlimit:4;stroke-dasharray:none" />
    <rect
       ry="11.591159"
       y="-23.783546"
       x="-314.74762"
       height="80.494164"
       width="82.426025"
       id="rect815-7-7"
       style="opacity:1;fill:#ffffff;fill-opacity:1;stroke-width:0.01448134;stroke-miterlimit:4;stroke-dasharray:none" />
    <rect
       ry="11.162109"
       y="-22.293789"
       x="-313.22211"
       height="77.514648"
       width="79.375"
       id="rect815-7"
       style="opacity:1;fill:#ffcc00;fill-opacity:1;stroke-width:0.01394531;stroke-miterlimit:4;stroke-dasharray:none" />
    <flowRoot
       style="font-style:normal;font-weight:normal;font-size:40px;line-height:1.25;font-family:sans-serif;letter-spacing:0px;word-spacing:0px;fill:#000000;fill-opacity:1;stroke:none"
       id="flowRoot864"
       xml:space="preserve"><flowRegion
         id="flowRegion866"><rect
           y="-211.76604"
           x="-1132.8572"
           height="94.285713"
           width="300"
           id="rect868" /></flowRegion><flowPara
         id="flowPara870" /></flowRoot>    <circle
       r="30.976671"
       cy="16.463535"
       cx="-273.53461"
       id="path832-9"
       style="opacity:1;fill:#2b0000;fill-opacity:1;stroke-width:0.01047534;stroke-miterlimit:4;stroke-dasharray:none" />
    <circle
       r="28.755516"
       cy="16.463535"
       cx="-273.53461"
       id="path832-91"
       style="opacity:1;fill:#ffffff;fill-opacity:1;stroke-width:0.00972421;stroke-miterlimit:4;stroke-dasharray:none" />
    <circle
       r="28.253403"
       cy="16.463535"
       cx="-273.53461"
       id="e-stop-warning"
       style="opacity:1;fill:#ff0000;fill-opacity:1;stroke-width:0.00955441;stroke-miterlimit:4;stroke-dasharray:none" />
    <path
       id="rect815-8"
       d="m -308.30821,-30.783447 c -7.53835,0 -13.60744,6.06856 -13.60744,13.60692 v 67.279605 c 0,7.53836 6.06909,13.60744 13.60744,13.60744 h 69.5477 c 7.53835,0 13.60692,-6.06908 13.60692,-13.60744 v -67.279605 c 0,-7.53836 -6.06857,-13.60692 -13.60692,-13.60692 z m 1.24386,1.69033 h 67.05947 c 7.26867,0 13.12064,5.85146 13.12064,13.12013 v 64.873045 c 0,7.26867 -5.85197,13.12013 -13.12064,13.12013 h -67.05947 c -7.26866,0 -13.12014,-5.85146 -13.12014,-13.12013 v -64.873045 c 0,-7.26867 5.85148,-13.12013 13.12014,-13.12013 z"
       style="opacity:1;fill:#280b0b;fill-opacity:1;stroke-width:0.017;stroke-miterlimit:4;stroke-dasharray:none" />
  </g>
</svg>
